<svg id="svg" version="1.1" xmlns="http://www.w3.org/2000/svg" xmlns:xlink="http://www.w3.org/1999/xlink" width="400" height="389.12000000000006" viewBox="0, 0, 400,389.12000000000006"><g id="svgg"><path id="path0" d="M187.333 0.175 C 186.554 0.240,185.167 0.345,184.250 0.407 C 183.333 0.470,181.796 0.595,180.833 0.687 C 179.871 0.778,178.746 0.883,178.333 0.920 C 177.921 0.957,176.908 1.072,176.083 1.174 C 175.258 1.277,174.283 1.394,173.917 1.435 C 170.620 1.800,165.247 2.719,158.417 4.087 C 158.142 4.142,157.729 4.216,157.500 4.252 C 157.271 4.287,156.851 4.352,156.567 4.397 C 156.283 4.441,155.570 4.603,154.984 4.755 C 154.397 4.908,153.804 5.056,153.667 5.083 C 152.372 5.343,146.455 6.924,143.458 7.810 C 142.840 7.993,142.333 8.096,142.333 8.038 C 142.333 7.981,142.243 8.023,142.133 8.133 C 142.023 8.243,141.798 8.333,141.632 8.333 C 141.254 8.333,134.352 10.590,133.718 10.921 C 133.461 11.055,133.170 11.165,133.073 11.166 C 132.976 11.166,132.414 11.357,131.823 11.589 C 131.233 11.821,130.600 12.041,130.417 12.077 C 130.233 12.113,130.083 12.153,130.083 12.167 C 130.083 12.181,129.937 12.220,129.757 12.253 C 129.578 12.287,129.278 12.386,129.090 12.474 C 128.903 12.563,128.112 12.879,127.333 13.178 C 126.165 13.626,123.808 14.604,120.750 15.909 C 120.475 16.026,119.725 16.332,119.083 16.589 C 117.993 17.025,113.563 19.109,110.333 20.704 C 106.373 22.661,102.569 24.740,98.417 27.218 C 97.958 27.492,97.175 27.936,96.677 28.206 C 96.179 28.476,95.354 28.969,94.844 29.302 C 94.334 29.636,93.710 30.013,93.458 30.142 C 93.206 30.270,93.000 30.441,93.000 30.521 C 93.000 30.601,92.925 30.667,92.834 30.667 C 92.742 30.667,92.302 30.929,91.855 31.250 C 91.409 31.571,90.977 31.833,90.897 31.834 C 90.816 31.834,90.000 32.352,89.083 32.986 C 88.167 33.619,86.479 34.777,85.333 35.559 C 84.188 36.341,82.620 37.454,81.850 38.032 C 81.080 38.610,80.105 39.327,79.683 39.626 C 79.262 39.924,78.767 40.298,78.583 40.457 C 78.400 40.616,78.008 40.912,77.713 41.115 C 77.417 41.318,76.667 41.909,76.046 42.429 C 75.425 42.948,74.747 43.514,74.540 43.687 C 74.333 43.859,74.090 44.000,74.000 44.000 C 73.910 44.000,73.742 44.150,73.628 44.333 C 73.513 44.517,73.337 44.667,73.236 44.667 C 73.135 44.667,72.759 44.957,72.401 45.312 C 71.399 46.305,69.371 48.000,69.185 48.000 C 69.094 48.000,68.921 48.135,68.801 48.301 C 68.681 48.466,67.271 49.789,65.667 51.240 C 62.640 53.978,56.157 60.330,53.633 63.031 C 52.027 64.749,48.910 68.184,48.367 68.833 C 46.824 70.679,45.430 72.281,45.235 72.435 C 45.106 72.537,45.000 72.673,45.000 72.739 C 45.000 72.804,44.906 72.952,44.792 73.068 C 44.677 73.184,44.433 73.489,44.250 73.747 C 44.067 74.005,43.391 74.861,42.747 75.650 C 40.970 77.830,40.500 78.450,40.500 78.619 C 40.500 78.704,40.266 79.031,39.980 79.345 C 39.264 80.132,37.005 83.194,35.439 85.500 C 34.724 86.554,33.763 87.942,33.306 88.583 C 32.848 89.225,32.295 90.098,32.077 90.523 C 31.858 90.948,31.579 91.398,31.457 91.523 C 31.144 91.841,29.149 95.002,28.316 96.500 C 27.933 97.188,27.281 98.275,26.867 98.917 C 26.452 99.558,25.833 100.608,25.492 101.250 C 25.150 101.892,24.063 103.917,23.078 105.750 C 22.092 107.583,20.839 110.021,20.295 111.167 C 19.750 112.313,18.782 114.320,18.144 115.628 C 17.505 116.937,16.879 118.287,16.752 118.628 C 16.625 118.970,16.113 120.225,15.616 121.417 C 15.118 122.608,14.541 123.996,14.335 124.500 C 14.128 125.004,13.863 125.642,13.746 125.917 C 12.890 127.928,12.333 129.375,12.333 129.588 C 12.333 129.725,12.261 129.968,12.173 130.127 C 11.852 130.704,8.583 140.256,8.423 141.083 C 8.387 141.267,8.346 141.417,8.332 141.417 C 8.318 141.417,8.270 141.642,8.227 141.917 C 8.183 142.192,8.047 142.717,7.923 143.083 C 7.312 144.902,5.109 153.122,4.908 154.333 C 4.871 154.563,4.693 155.350,4.515 156.083 C 4.336 156.817,4.185 157.454,4.178 157.500 C 4.113 157.950,3.884 159.226,3.412 161.750 C 2.085 168.853,1.359 173.637,0.921 178.167 C 0.514 182.366,0.493 182.630,0.219 186.667 C -0.075 190.986,0.104 214.471,0.434 215.024 C 0.469 215.083,0.539 215.758,0.590 216.524 C 0.641 217.290,0.754 218.523,0.842 219.264 C 0.930 220.004,1.041 221.054,1.089 221.597 C 1.169 222.509,1.433 224.685,1.582 225.667 C 1.617 225.896,1.694 226.458,1.753 226.917 C 1.954 228.477,3.156 235.409,3.587 237.500 C 3.824 238.646,4.051 239.846,4.092 240.167 C 4.133 240.487,4.210 240.955,4.263 241.206 C 4.315 241.456,4.358 241.698,4.357 241.744 C 4.356 241.790,4.430 242.072,4.522 242.372 C 4.614 242.672,4.727 243.142,4.775 243.417 C 5.297 246.456,8.756 258.656,10.374 263.167 C 10.785 264.313,11.407 266.075,11.755 267.083 C 12.567 269.433,13.300 271.437,13.598 272.125 C 13.728 272.423,13.940 272.910,14.070 273.208 C 14.200 273.506,14.539 274.338,14.824 275.056 C 15.109 275.775,15.498 276.670,15.690 277.046 C 15.882 277.421,16.186 278.177,16.366 278.726 C 16.546 279.274,17.475 281.327,18.430 283.289 C 19.385 285.250,20.167 286.913,20.167 286.984 C 20.167 287.055,20.468 287.669,20.836 288.348 C 21.204 289.028,21.926 290.408,22.440 291.417 C 22.954 292.425,23.505 293.438,23.665 293.667 C 23.825 293.896,24.014 294.270,24.086 294.499 C 24.157 294.728,24.819 295.928,25.557 297.166 C 26.296 298.404,27.074 299.742,27.287 300.140 C 27.500 300.538,27.785 300.975,27.920 301.111 C 28.056 301.246,28.167 301.435,28.167 301.531 C 28.167 301.728,29.204 303.421,30.917 306.020 C 31.558 306.993,32.206 308.006,32.355 308.270 C 32.505 308.534,33.247 309.650,34.004 310.750 C 34.762 311.850,35.903 313.519,36.540 314.458 C 37.177 315.398,37.779 316.167,37.877 316.167 C 37.975 316.167,38.006 316.216,37.946 316.276 C 37.886 316.336,38.157 316.767,38.547 317.234 C 39.481 318.350,40.249 319.388,40.249 319.534 C 40.250 319.599,40.519 319.974,40.847 320.367 C 41.176 320.761,42.411 322.283,43.592 323.750 C 44.773 325.217,45.817 326.501,45.911 326.603 C 46.006 326.706,46.496 327.294,47.000 327.910 C 47.504 328.526,48.048 329.101,48.208 329.188 C 48.369 329.274,48.500 329.451,48.500 329.581 C 48.500 329.711,48.594 329.877,48.709 329.950 C 48.823 330.023,49.172 330.383,49.484 330.750 C 50.763 332.255,52.698 334.355,54.583 336.285 C 55.683 337.410,56.604 338.396,56.630 338.474 C 56.733 338.782,65.877 347.443,67.500 348.769 C 67.821 349.031,68.421 349.555,68.833 349.934 C 70.219 351.206,72.068 352.752,74.346 354.545 C 75.590 355.525,76.746 356.478,76.913 356.663 C 77.081 356.848,77.282 357.000,77.361 357.000 C 77.439 357.000,78.516 357.787,79.754 358.750 C 80.992 359.712,82.044 360.500,82.093 360.500 C 82.141 360.500,82.271 360.575,82.382 360.667 C 82.493 360.759,82.958 361.097,83.417 361.419 C 83.875 361.741,84.593 362.247,85.013 362.544 C 85.432 362.841,87.270 364.071,89.096 365.278 C 90.922 366.485,92.497 367.544,92.595 367.632 C 92.943 367.941,94.955 369.167,95.116 369.167 C 95.206 369.167,95.685 369.453,96.181 369.802 C 97.343 370.621,99.722 372.000,99.973 372.000 C 100.080 372.000,100.167 372.063,100.167 372.140 C 100.167 372.279,100.781 372.614,101.065 372.630 C 101.146 372.634,101.259 372.702,101.315 372.780 C 101.371 372.858,101.979 373.212,102.667 373.566 C 103.354 373.920,104.104 374.341,104.333 374.501 C 104.886 374.887,108.828 376.888,112.750 378.775 C 115.861 380.271,116.326 380.485,118.500 381.418 C 119.462 381.831,120.027 382.078,121.917 382.912 C 124.012 383.838,126.237 384.720,126.528 384.742 C 126.589 384.746,126.695 384.806,126.764 384.875 C 126.833 384.944,126.987 385.000,127.106 385.000 C 127.226 385.000,127.719 385.179,128.203 385.398 C 129.282 385.886,134.711 387.861,136.083 388.264 C 141.123 389.745,146.920 387.540,148.919 383.382 C 150.033 381.066,149.990 382.381,149.859 354.457 C 149.791 340.050,149.914 341.219,148.500 341.529 C 135.443 344.390,120.567 344.513,111.833 341.833 C 111.513 341.734,110.875 341.580,110.417 341.490 C 109.452 341.301,105.885 340.009,104.401 339.311 C 103.842 339.048,103.298 338.833,103.192 338.833 C 103.086 338.833,103.000 338.758,103.000 338.667 C 103.000 338.575,102.916 338.500,102.813 338.500 C 100.561 338.500,91.008 331.089,87.882 326.917 C 86.773 325.436,84.667 322.362,84.667 322.224 C 84.667 322.175,84.521 321.930,84.342 321.679 C 84.164 321.429,83.910 320.930,83.778 320.570 C 83.334 319.360,81.355 314.905,80.319 312.784 C 79.970 312.070,79.633 311.320,79.570 311.118 C 79.396 310.556,77.344 306.847,76.738 306.000 C 76.443 305.587,75.964 304.800,75.674 304.250 C 75.383 303.700,74.981 303.024,74.781 302.749 C 73.695 301.254,72.472 299.685,72.252 299.501 C 72.113 299.386,72.000 299.189,72.000 299.063 C 72.000 298.937,71.925 298.833,71.833 298.833 C 71.742 298.833,71.667 298.769,71.667 298.691 C 71.667 298.411,68.037 294.609,65.833 292.580 C 63.939 290.837,63.201 290.303,61.113 289.162 C 60.762 288.971,59.816 288.293,59.011 287.657 C 58.205 287.021,57.498 286.500,57.440 286.500 C 57.150 286.500,54.973 284.345,54.036 283.130 C 51.410 279.726,52.975 277.862,59.119 277.080 C 60.209 276.941,62.525 276.986,63.917 277.173 C 65.792 277.426,65.634 277.395,66.376 277.647 C 66.721 277.764,67.096 277.828,67.210 277.788 C 68.341 277.393,79.413 282.812,80.253 284.171 C 80.309 284.262,80.931 284.759,81.636 285.277 C 84.571 287.433,90.006 293.652,91.953 297.083 C 92.956 298.851,93.675 299.990,94.414 300.984 C 94.782 301.479,95.525 302.489,96.066 303.228 C 96.606 303.967,97.131 304.656,97.232 304.759 C 97.334 304.862,98.054 305.647,98.833 306.504 C 100.777 308.641,100.909 308.770,102.402 310.000 C 103.126 310.596,103.856 311.215,104.026 311.375 C 104.195 311.535,104.400 311.667,104.482 311.667 C 104.564 311.667,104.674 311.779,104.727 311.917 C 104.780 312.055,105.088 312.293,105.412 312.448 C 105.735 312.602,106.000 312.790,106.000 312.864 C 106.000 312.939,106.112 313.000,106.250 313.000 C 106.388 313.000,106.500 313.070,106.500 313.155 C 106.500 313.241,106.663 313.363,106.862 313.426 C 107.061 313.489,107.606 313.785,108.074 314.085 C 108.542 314.384,109.776 315.038,110.816 315.539 L 112.707 316.448 111.679 316.556 C 106.595 317.087,108.621 322.823,113.917 322.889 C 117.177 322.930,118.562 319.949,116.190 317.994 C 115.566 317.480,115.728 317.342,116.577 317.664 C 116.814 317.755,117.175 317.866,117.379 317.912 C 121.459 318.836,124.432 319.191,127.750 319.151 C 131.789 319.103,134.175 318.779,140.363 317.442 C 144.287 316.593,150.391 314.154,150.465 313.404 C 150.491 313.136,150.621 312.354,150.752 311.667 C 150.884 310.979,151.024 310.229,151.065 310.000 C 151.105 309.771,151.222 309.246,151.324 308.833 C 151.427 308.421,151.550 307.901,151.597 307.678 C 151.645 307.456,151.714 307.224,151.751 307.164 C 151.789 307.104,151.860 306.799,151.911 306.486 C 152.117 305.210,153.083 302.402,154.017 300.363 C 154.283 299.784,154.500 299.276,154.500 299.234 C 154.500 299.125,155.502 297.127,156.266 295.711 C 157.262 293.866,160.091 290.123,161.625 288.619 C 163.271 287.005,163.260 287.062,161.958 286.914 C 161.385 286.848,160.804 286.774,160.667 286.750 C 160.529 286.725,159.967 286.653,159.417 286.590 C 158.867 286.527,158.057 286.407,157.617 286.323 C 157.177 286.240,156.764 286.185,156.700 286.200 C 156.636 286.216,156.208 286.176,155.750 286.111 C 155.292 286.047,154.579 285.958,154.167 285.914 C 152.802 285.768,152.114 285.650,148.750 284.983 C 145.101 284.260,140.386 283.193,138.167 282.588 C 137.387 282.376,136.171 282.077,135.463 281.924 C 134.034 281.615,130.053 280.331,127.647 279.402 C 124.734 278.278,123.918 277.981,123.527 277.901 C 123.312 277.857,121.959 277.262,120.520 276.577 C 119.080 275.893,117.818 275.333,117.715 275.333 C 117.612 275.333,117.503 275.277,117.472 275.208 C 117.442 275.140,116.892 274.831,116.250 274.523 C 115.608 274.215,114.933 273.883,114.750 273.786 C 113.716 273.239,111.985 272.248,111.333 271.830 C 110.921 271.565,110.096 271.073,109.500 270.736 C 108.324 270.071,108.261 270.029,105.125 267.796 C 103.956 266.963,103.000 266.219,103.000 266.141 C 103.000 266.064,102.919 266.000,102.821 266.000 C 102.142 266.000,96.253 260.418,92.742 256.447 C 88.350 251.479,80.193 237.636,79.605 234.152 C 79.551 233.827,78.978 232.121,78.855 231.917 C 78.800 231.825,78.745 231.694,78.732 231.625 C 78.719 231.556,78.690 231.463,78.667 231.417 C 78.644 231.371,78.612 231.277,78.596 231.208 C 78.580 231.140,78.182 229.921,77.712 228.500 C 76.800 225.747,76.068 223.236,75.938 222.417 C 75.894 222.142,75.550 220.460,75.174 218.679 C 71.285 200.288,71.197 181.464,74.936 167.750 C 75.161 166.925,75.424 165.950,75.522 165.583 C 75.619 165.217,75.767 164.786,75.850 164.627 C 75.932 164.468,76.000 164.186,76.000 164.000 C 76.000 163.631,77.565 159.544,78.346 157.875 C 78.614 157.301,78.833 156.797,78.833 156.754 C 78.833 156.711,79.018 156.280,79.243 155.796 C 79.468 155.312,79.674 154.804,79.701 154.667 C 79.728 154.529,79.787 154.379,79.833 154.333 C 79.879 154.287,80.195 153.688,80.536 153.000 C 82.024 149.997,84.348 146.238,87.440 141.833 C 88.139 140.838,89.904 138.621,90.500 137.990 C 91.154 137.298,91.954 136.352,92.314 135.845 L 92.712 135.286 92.364 134.268 C 88.060 121.660,87.589 106.636,91.098 93.917 C 91.149 93.733,91.209 93.471,91.232 93.333 C 91.254 93.196,91.360 92.874,91.468 92.619 C 91.575 92.364,91.650 92.101,91.634 92.036 C 91.619 91.970,91.703 91.579,91.821 91.167 C 91.939 90.754,92.182 89.892,92.362 89.250 C 92.754 87.846,94.482 83.148,94.688 82.924 C 95.203 82.365,100.377 82.170,103.250 82.601 C 104.075 82.725,105.087 82.872,105.500 82.927 C 105.912 82.983,106.438 83.065,106.667 83.110 C 106.896 83.154,107.308 83.220,107.583 83.256 C 108.782 83.414,114.824 85.143,116.236 85.733 C 116.564 85.871,116.833 85.940,116.833 85.888 C 116.833 85.835,116.927 85.868,117.042 85.960 C 117.156 86.052,118.112 86.444,119.167 86.829 C 121.484 87.678,122.589 88.137,124.667 89.113 C 125.537 89.522,126.625 90.015,127.083 90.207 C 127.542 90.399,128.034 90.655,128.177 90.776 C 128.321 90.897,128.692 91.084,129.003 91.193 C 129.758 91.456,133.224 93.324,138.167 96.131 C 139.221 96.730,140.121 97.265,140.167 97.320 C 140.330 97.516,141.662 98.333,141.818 98.333 C 141.905 98.333,142.096 98.453,142.241 98.599 C 142.387 98.744,142.621 98.881,142.760 98.901 C 142.900 98.922,143.517 99.293,144.132 99.727 C 146.182 101.173,148.481 102.667,148.658 102.667 C 148.755 102.667,148.833 102.733,148.833 102.814 C 148.833 103.279,149.458 103.190,153.333 102.175 C 157.958 100.964,165.398 99.393,168.000 99.078 C 169.851 98.854,170.348 98.783,173.750 98.252 C 182.852 96.831,199.166 96.095,208.333 96.691 C 214.506 97.093,217.449 97.366,223.500 98.098 C 223.912 98.147,224.887 98.291,225.667 98.416 C 227.222 98.665,228.099 98.786,230.417 99.072 C 233.180 99.412,241.053 101.095,246.439 102.497 L 249.127 103.197 250.272 102.481 C 250.902 102.087,251.454 101.715,251.500 101.653 C 251.641 101.463,257.062 98.045,257.716 97.732 C 258.056 97.571,258.333 97.377,258.333 97.302 C 258.333 97.228,258.412 97.167,258.509 97.167 C 258.605 97.167,259.317 96.754,260.091 96.250 C 260.864 95.746,261.591 95.328,261.707 95.321 C 261.822 95.314,262.142 95.168,262.417 94.995 C 262.692 94.822,263.704 94.257,264.667 93.738 C 265.629 93.219,266.839 92.542,267.354 92.233 C 267.870 91.924,268.919 91.403,269.684 91.076 C 270.450 90.748,271.303 90.342,271.580 90.173 C 274.381 88.464,286.159 84.165,289.917 83.480 C 290.467 83.380,291.629 83.163,292.500 82.997 C 298.048 81.941,303.811 82.165,304.090 83.447 C 304.147 83.705,304.254 84.067,304.328 84.250 C 304.402 84.433,304.550 84.902,304.655 85.292 C 304.760 85.681,304.923 86.000,305.017 86.000 C 305.110 86.000,305.143 86.070,305.090 86.156 C 305.037 86.242,305.174 86.786,305.396 87.365 C 306.261 89.628,307.889 95.509,308.062 97.000 C 308.110 97.412,308.233 98.162,308.335 98.667 C 308.437 99.171,308.553 99.808,308.591 100.083 C 308.629 100.358,308.732 100.958,308.820 101.417 C 308.907 101.875,309.025 102.700,309.082 103.250 C 309.181 104.216,309.262 104.936,309.410 106.167 C 309.741 108.937,309.636 118.120,309.245 120.485 C 309.209 120.705,309.132 121.230,309.075 121.651 C 309.017 122.072,308.939 122.604,308.901 122.833 C 308.581 124.741,308.312 126.308,308.090 127.550 C 307.946 128.356,307.345 130.451,306.754 132.205 L 305.680 135.394 306.301 136.072 C 307.618 137.508,307.996 137.954,308.859 139.090 C 310.121 140.752,310.712 141.506,311.000 141.820 C 311.297 142.143,315.040 147.704,315.509 148.518 C 315.689 148.829,315.966 149.346,316.126 149.667 C 316.286 149.987,316.460 150.287,316.513 150.333 C 316.859 150.633,320.148 157.669,320.838 159.583 C 321.300 160.867,321.744 162.067,321.825 162.250 C 322.018 162.687,322.238 163.363,322.908 165.583 C 323.955 169.049,324.445 171.013,324.357 171.388 C 324.339 171.464,324.407 171.801,324.507 172.138 C 324.607 172.475,324.724 173.012,324.767 173.333 C 324.810 173.654,324.998 174.868,325.185 176.030 C 326.368 183.375,326.466 195.358,325.417 204.583 C 325.203 206.466,324.785 209.782,324.567 211.333 C 324.431 212.296,324.288 213.421,324.248 213.833 C 324.000 216.427,322.263 223.689,320.839 228.086 C 320.572 228.912,320.281 229.887,320.194 230.252 C 319.988 231.119,318.998 233.834,318.461 235.004 C 318.229 235.510,317.761 236.598,317.421 237.420 C 317.081 238.243,316.747 238.992,316.678 239.083 C 316.610 239.175,316.377 239.700,316.159 240.250 C 315.942 240.800,315.255 242.138,314.632 243.224 C 314.009 244.309,313.500 245.230,313.500 245.269 C 313.500 245.308,313.298 245.657,313.050 246.045 C 312.803 246.433,312.429 247.088,312.219 247.500 C 312.009 247.912,311.275 249.000,310.588 249.917 C 309.901 250.833,309.338 251.671,309.336 251.778 C 309.335 251.885,309.267 251.997,309.185 252.028 C 309.104 252.058,308.710 252.545,308.310 253.109 C 306.194 256.097,301.484 261.134,298.333 263.779 C 297.554 264.433,296.692 265.163,296.417 265.402 C 296.142 265.641,295.242 266.318,294.417 266.906 C 293.592 267.495,292.599 268.226,292.211 268.530 C 291.561 269.039,290.300 269.843,287.250 271.692 C 286.608 272.081,285.896 272.501,285.667 272.626 C 285.438 272.750,285.025 272.998,284.750 273.176 C 284.089 273.605,283.115 274.070,282.958 274.031 C 282.890 274.014,282.833 274.075,282.833 274.167 C 282.833 274.258,282.702 274.335,282.542 274.336 C 282.381 274.338,281.837 274.570,281.333 274.852 C 280.047 275.571,275.239 277.747,274.244 278.060 C 273.789 278.203,272.367 278.704,271.083 279.175 C 266.918 280.700,262.722 282.000,261.962 282.000 C 261.708 282.000,261.500 282.070,261.500 282.156 C 261.500 282.242,261.369 282.310,261.208 282.307 C 261.048 282.304,260.767 282.340,260.583 282.386 C 259.342 282.699,254.488 283.860,253.250 284.140 C 249.980 284.881,244.554 285.802,242.672 285.936 C 241.987 285.985,241.365 286.064,241.288 286.111 C 241.212 286.159,240.834 286.231,240.449 286.272 C 240.065 286.312,239.150 286.420,238.417 286.510 C 237.683 286.601,236.671 286.719,236.167 286.774 C 235.662 286.829,235.223 286.899,235.189 286.929 C 235.155 286.959,235.819 287.681,236.664 288.533 C 238.744 290.633,241.638 294.489,242.392 296.167 C 242.454 296.304,242.700 296.754,242.940 297.167 C 243.433 298.016,244.403 300.211,244.781 301.333 C 244.920 301.746,245.132 302.308,245.253 302.583 C 246.191 304.718,247.813 311.209,248.084 313.917 C 248.121 314.283,248.196 315.033,248.251 315.583 C 248.347 316.535,248.413 317.390,248.578 319.833 C 248.688 321.452,248.685 338.289,248.571 360.436 C 248.456 382.684,248.370 381.042,249.804 383.991 C 251.213 386.889,254.608 388.579,259.000 388.569 L 261.583 388.563 263.667 387.845 C 264.813 387.451,266.998 386.657,268.523 386.081 C 270.049 385.505,271.530 384.983,271.815 384.921 C 272.100 384.858,272.333 384.738,272.333 384.653 C 272.333 384.569,272.390 384.516,272.458 384.536 C 272.527 384.556,272.846 384.470,273.167 384.345 C 273.487 384.220,273.787 384.103,273.833 384.086 C 274.637 383.784,278.089 382.290,279.468 381.646 C 280.230 381.291,280.935 381.000,281.035 381.000 C 281.135 381.000,282.800 380.224,284.734 379.275 C 286.668 378.327,289.060 377.167,290.049 376.698 C 291.039 376.229,292.051 375.704,292.299 375.532 C 292.547 375.360,293.425 374.853,294.250 374.406 C 295.075 373.959,296.200 373.349,296.750 373.049 C 297.300 372.750,297.900 372.430,298.083 372.339 C 298.267 372.247,298.697 372.002,299.040 371.795 C 299.383 371.587,300.658 370.825,301.874 370.103 C 303.089 369.380,304.517 368.499,305.047 368.144 C 305.577 367.790,306.046 367.500,306.090 367.500 C 306.134 367.500,306.625 367.181,307.180 366.792 C 307.735 366.402,308.778 365.708,309.498 365.250 C 310.807 364.416,317.382 359.821,318.167 359.192 C 319.493 358.128,320.172 357.615,320.917 357.114 C 321.375 356.805,321.997 356.319,322.300 356.035 C 322.602 355.750,322.902 355.514,322.967 355.510 C 323.031 355.507,323.346 355.255,323.667 354.951 C 324.466 354.194,325.917 353.000,326.036 353.000 C 326.125 353.000,326.734 352.498,327.755 351.583 C 327.959 351.400,328.748 350.725,329.507 350.083 C 330.267 349.442,331.197 348.617,331.574 348.250 C 331.951 347.883,332.970 346.951,333.838 346.177 C 334.706 345.404,336.274 343.941,337.321 342.927 C 339.731 340.594,339.486 340.840,342.323 337.906 C 346.819 333.257,347.612 332.417,347.872 332.029 C 348.015 331.816,348.784 330.940,349.580 330.082 C 350.377 329.224,351.303 328.156,351.639 327.708 C 352.277 326.857,353.788 325.038,354.094 324.750 C 354.452 324.415,355.616 322.900,355.983 322.293 C 356.190 321.950,356.452 321.612,356.565 321.543 C 356.678 321.473,357.249 320.779,357.835 320.000 C 358.420 319.221,359.109 318.306,359.366 317.968 C 359.623 317.630,359.833 317.280,359.833 317.190 C 359.833 317.101,359.897 317.003,359.974 316.972 C 360.150 316.903,362.477 313.728,363.535 312.114 C 363.967 311.456,364.799 310.242,365.383 309.417 C 366.585 307.721,368.000 305.424,368.000 305.170 C 368.000 305.076,368.063 305.000,368.140 305.000 C 368.217 305.000,368.486 304.622,368.738 304.159 C 369.226 303.263,370.204 301.715,370.492 301.382 C 370.588 301.271,370.667 301.112,370.667 301.027 C 370.667 300.943,370.764 300.793,370.884 300.694 C 371.003 300.595,371.389 299.930,371.742 299.215 C 372.095 298.501,372.476 297.804,372.590 297.667 C 372.894 297.298,375.900 291.815,375.937 291.561 C 375.955 291.441,376.340 290.685,376.793 289.880 C 377.644 288.369,378.662 286.323,379.035 285.375 C 379.152 285.077,379.299 284.833,379.361 284.833 C 379.423 284.833,379.602 284.440,379.760 283.958 C 379.918 283.477,380.373 282.431,380.770 281.634 C 381.437 280.299,383.487 275.635,383.577 275.250 C 383.598 275.158,383.707 274.858,383.819 274.583 C 384.753 272.285,386.567 267.606,387.048 266.250 C 388.170 263.090,390.890 254.658,391.075 253.768 C 391.115 253.575,391.335 252.742,391.563 251.917 C 392.746 247.644,394.991 237.675,395.599 234.000 C 395.667 233.588,395.742 233.137,395.765 233.000 C 395.789 232.862,395.885 232.112,395.979 231.333 C 396.072 230.554,396.373 228.379,396.647 226.500 C 398.300 215.158,399.139 198.108,398.431 190.250 C 398.390 189.792,398.308 188.479,398.250 187.333 C 398.136 185.098,397.531 177.914,397.422 177.500 C 397.386 177.362,397.309 176.800,397.251 176.250 C 396.452 168.662,394.561 158.179,392.727 151.167 C 392.308 149.563,391.945 148.100,391.922 147.917 C 391.862 147.446,390.977 144.118,390.858 143.917 C 390.804 143.825,390.746 143.660,390.729 143.549 C 390.712 143.438,390.584 142.988,390.444 142.549 C 390.305 142.110,389.692 140.175,389.084 138.250 C 388.475 136.325,387.899 134.547,387.805 134.299 C 387.710 134.051,387.647 133.826,387.665 133.799 C 387.683 133.772,387.584 133.450,387.445 133.083 C 387.307 132.717,386.954 131.779,386.661 131.000 C 386.368 130.221,386.050 129.396,385.953 129.167 C 385.857 128.938,385.772 128.710,385.764 128.661 C 385.750 128.575,383.931 123.920,383.649 123.250 C 383.572 123.067,383.361 122.530,383.180 122.057 C 382.998 121.583,382.696 120.910,382.508 120.559 C 382.320 120.208,382.167 119.870,382.167 119.807 C 382.167 119.693,380.388 115.857,379.913 114.945 C 379.777 114.685,379.667 114.383,379.667 114.274 C 379.667 114.164,379.433 113.626,379.147 113.079 C 378.861 112.531,377.981 110.808,377.190 109.250 C 376.400 107.692,375.677 106.362,375.585 106.294 C 375.492 106.227,375.480 106.171,375.558 106.169 C 375.635 106.168,375.512 105.848,375.285 105.458 C 374.776 104.587,374.527 104.145,372.540 100.583 C 371.671 99.025,370.868 97.638,370.755 97.500 C 370.643 97.362,370.503 97.138,370.446 97.000 C 370.388 96.862,370.170 96.479,369.962 96.148 C 369.754 95.817,369.133 94.817,368.583 93.925 C 366.837 91.094,364.968 88.252,364.815 88.194 C 364.733 88.164,364.664 88.051,364.660 87.944 C 364.656 87.837,364.431 87.490,364.160 87.173 C 363.889 86.856,363.667 86.532,363.667 86.453 C 363.667 86.274,362.826 85.084,360.958 82.617 C 360.431 81.921,360.000 81.302,360.000 81.241 C 360.000 81.136,359.418 80.364,358.939 79.833 C 358.815 79.696,358.350 79.096,357.905 78.500 C 357.460 77.904,357.055 77.379,357.006 77.333 C 356.956 77.287,356.493 76.683,355.978 75.990 C 355.462 75.298,354.938 74.621,354.812 74.486 C 354.686 74.352,354.325 73.906,354.008 73.496 C 353.692 73.086,353.094 72.391,352.678 71.952 C 352.263 71.513,351.853 71.025,351.767 70.869 C 351.682 70.712,351.568 70.546,351.514 70.500 C 351.460 70.454,350.991 69.891,350.471 69.248 C 349.952 68.605,349.315 67.888,349.055 67.654 C 348.796 67.420,348.247 66.821,347.836 66.323 C 347.425 65.824,346.444 64.742,345.657 63.917 C 344.870 63.092,343.706 61.866,343.071 61.192 C 342.008 60.064,339.799 57.866,335.941 54.098 C 335.104 53.281,333.969 52.240,333.418 51.786 C 332.867 51.332,332.150 50.688,331.825 50.355 C 330.941 49.452,329.473 48.156,329.000 47.862 C 328.771 47.719,328.058 47.106,327.417 46.498 C 326.775 45.891,325.800 45.065,325.250 44.663 C 324.700 44.261,323.762 43.528,323.167 43.034 C 321.587 41.722,321.648 41.770,318.750 39.622 C 317.283 38.535,315.834 37.450,315.529 37.211 C 315.224 36.972,314.324 36.368,313.529 35.869 C 312.734 35.370,311.904 34.783,311.686 34.564 C 311.467 34.345,311.186 34.167,311.061 34.167 C 310.936 34.167,310.833 34.108,310.833 34.036 C 310.833 33.901,309.815 33.248,309.667 33.287 C 309.621 33.300,309.523 33.202,309.450 33.071 C 309.377 32.941,309.214 32.833,309.089 32.833 C 308.964 32.833,308.836 32.777,308.806 32.708 C 308.775 32.638,308.225 32.251,307.583 31.846 C 306.942 31.441,305.479 30.500,304.333 29.756 C 303.188 29.011,301.973 28.272,301.634 28.114 C 301.296 27.956,299.912 27.153,298.559 26.330 C 297.207 25.507,296.009 24.833,295.897 24.833 C 295.786 24.833,295.669 24.768,295.639 24.687 C 295.589 24.556,294.550 24.003,288.583 20.929 C 287.667 20.456,286.879 20.070,286.833 20.071 C 286.787 20.072,285.490 19.456,283.950 18.703 C 282.410 17.950,281.113 17.333,281.068 17.333 C 281.023 17.333,280.483 17.091,279.868 16.795 C 279.253 16.499,278.675 16.249,278.583 16.240 C 278.492 16.230,278.229 16.136,278.000 16.031 C 276.740 15.450,271.438 13.258,270.583 12.965 C 270.033 12.777,269.508 12.568,269.417 12.501 C 269.275 12.397,268.915 12.282,268.083 12.073 C 267.992 12.050,266.829 11.641,265.500 11.166 C 260.260 9.290,257.518 8.400,256.000 8.081 C 255.862 8.052,254.963 7.800,254.000 7.521 C 252.241 7.012,251.518 6.812,248.750 6.074 C 247.051 5.620,243.087 4.660,242.583 4.580 C 242.400 4.550,242.063 4.476,241.833 4.415 C 241.604 4.353,241.004 4.232,240.500 4.146 C 239.996 4.059,238.046 3.694,236.167 3.334 C 231.283 2.399,225.714 1.508,223.083 1.241 C 222.533 1.185,221.806 1.109,221.466 1.072 C 219.438 0.852,217.884 0.697,217.667 0.694 C 217.529 0.691,216.817 0.628,216.083 0.553 C 215.350 0.478,214.281 0.417,213.708 0.417 C 213.135 0.417,212.667 0.366,212.667 0.304 C 212.667 0.162,213.654 0.177,200.167 0.112 C 193.887 0.082,188.112 0.110,187.333 0.175 M70.437 280.333 C 68.544 280.924,68.756 283.048,70.832 284.292 C 72.912 285.539,75.403 284.501,74.840 282.622 C 74.376 281.075,72.006 279.842,70.437 280.333 M79.895 287.118 C 77.673 288.982,80.768 293.781,83.685 292.995 C 86.642 292.199,84.615 287.055,81.274 286.875 C 80.477 286.833,80.171 286.886,79.895 287.118 M87.075 296.893 C 85.245 297.718,85.129 300.064,86.812 302.222 C 89.729 305.961,93.511 303.719,91.642 299.360 C 90.899 297.626,88.420 296.287,87.075 296.893 M96.844 310.127 C 94.948 311.046,95.396 314.564,97.630 316.293 C 100.292 318.353,103.276 317.609,103.234 314.895 C 103.187 311.887,99.261 308.957,96.844 310.127 M127.558 320.181 C 123.460 321.757,125.064 325.927,129.750 325.880 C 132.266 325.854,133.839 324.779,133.968 322.997 L 134.041 321.993 133.229 321.182 C 131.903 319.857,129.503 319.433,127.558 320.181 M144.457 320.226 C 140.088 322.068,141.117 326.157,145.894 325.938 C 146.798 325.897,147.619 325.781,147.719 325.681 C 147.818 325.582,148.016 325.498,148.158 325.496 C 149.122 325.480,150.500 323.741,150.500 322.541 C 150.500 320.386,147.136 319.097,144.457 320.226 " stroke="none" fill="#ececec" fill-rule="evenodd"></path><path id="path1" d="M209.294 0.118 C 209.501 0.158,209.801 0.156,209.960 0.115 C 210.120 0.073,209.950 0.040,209.583 0.042 C 209.217 0.044,209.086 0.078,209.294 0.118 M64.583 52.098 L 64.083 52.528 64.625 52.169 C 64.923 51.972,65.167 51.778,65.167 51.739 C 65.167 51.614,65.096 51.657,64.583 52.098 M342.000 60.052 C 342.000 60.081,342.244 60.325,342.542 60.594 L 343.083 61.083 342.594 60.542 C 342.138 60.037,342.000 59.923,342.000 60.052 M79.695 234.509 C 79.792 234.788,79.903 234.986,79.941 234.948 C 80.023 234.866,79.709 234.000,79.596 234.000 C 79.553 234.000,79.597 234.229,79.695 234.509 M248.705 331.500 C 248.705 331.821,248.740 331.952,248.782 331.792 C 248.823 331.631,248.823 331.369,248.782 331.208 C 248.740 331.048,248.705 331.179,248.705 331.500 M149.365 341.436 C 149.520 341.483,149.684 341.647,149.730 341.802 C 149.791 342.006,149.805 341.992,149.780 341.752 C 149.760 341.558,149.609 341.406,149.415 341.386 C 149.174 341.362,149.161 341.376,149.365 341.436 M248.539 352.333 C 248.539 352.654,248.573 352.785,248.615 352.625 C 248.657 352.465,248.657 352.202,248.615 352.042 C 248.573 351.881,248.539 352.012,248.539 352.333 " stroke="none" fill="#f0ecec" fill-rule="evenodd"></path><path id="path2" d="M209.294 0.118 C 209.501 0.158,209.801 0.156,209.960 0.115 C 210.120 0.073,209.950 0.040,209.583 0.042 C 209.217 0.044,209.086 0.078,209.294 0.118 M64.583 52.098 L 64.083 52.528 64.625 52.169 C 64.923 51.972,65.167 51.778,65.167 51.739 C 65.167 51.614,65.096 51.657,64.583 52.098 M342.000 60.052 C 342.000 60.081,342.244 60.325,342.542 60.594 L 343.083 61.083 342.594 60.542 C 342.138 60.037,342.000 59.923,342.000 60.052 M79.695 234.509 C 79.792 234.788,79.903 234.986,79.941 234.948 C 80.023 234.866,79.709 234.000,79.596 234.000 C 79.553 234.000,79.597 234.229,79.695 234.509 M248.705 331.500 C 248.705 331.821,248.740 331.952,248.782 331.792 C 248.823 331.631,248.823 331.369,248.782 331.208 C 248.740 331.048,248.705 331.179,248.705 331.500 M149.365 341.436 C 149.520 341.483,149.684 341.647,149.730 341.802 C 149.791 342.006,149.805 341.992,149.780 341.752 C 149.760 341.558,149.609 341.406,149.415 341.386 C 149.174 341.362,149.161 341.376,149.365 341.436 M248.539 352.333 C 248.539 352.654,248.573 352.785,248.615 352.625 C 248.657 352.465,248.657 352.202,248.615 352.042 C 248.573 351.881,248.539 352.012,248.539 352.333 " stroke="none" fill="#f0ecec" fill-rule="evenodd"></path><path id="path3" d="M209.294 0.118 C 209.501 0.158,209.801 0.156,209.960 0.115 C 210.120 0.073,209.950 0.040,209.583 0.042 C 209.217 0.044,209.086 0.078,209.294 0.118 M64.583 52.098 L 64.083 52.528 64.625 52.169 C 64.923 51.972,65.167 51.778,65.167 51.739 C 65.167 51.614,65.096 51.657,64.583 52.098 M342.000 60.052 C 342.000 60.081,342.244 60.325,342.542 60.594 L 343.083 61.083 342.594 60.542 C 342.138 60.037,342.000 59.923,342.000 60.052 M79.695 234.509 C 79.792 234.788,79.903 234.986,79.941 234.948 C 80.023 234.866,79.709 234.000,79.596 234.000 C 79.553 234.000,79.597 234.229,79.695 234.509 M248.705 331.500 C 248.705 331.821,248.740 331.952,248.782 331.792 C 248.823 331.631,248.823 331.369,248.782 331.208 C 248.740 331.048,248.705 331.179,248.705 331.500 M149.365 341.436 C 149.520 341.483,149.684 341.647,149.730 341.802 C 149.791 342.006,149.805 341.992,149.780 341.752 C 149.760 341.558,149.609 341.406,149.415 341.386 C 149.174 341.362,149.161 341.376,149.365 341.436 M248.539 352.333 C 248.539 352.654,248.573 352.785,248.615 352.625 C 248.657 352.465,248.657 352.202,248.615 352.042 C 248.573 351.881,248.539 352.012,248.539 352.333 " stroke="none" fill="#f0ecec" fill-rule="evenodd"></path><path id="path4" d="M209.294 0.118 C 209.501 0.158,209.801 0.156,209.960 0.115 C 210.120 0.073,209.950 0.040,209.583 0.042 C 209.217 0.044,209.086 0.078,209.294 0.118 M64.583 52.098 L 64.083 52.528 64.625 52.169 C 64.923 51.972,65.167 51.778,65.167 51.739 C 65.167 51.614,65.096 51.657,64.583 52.098 M342.000 60.052 C 342.000 60.081,342.244 60.325,342.542 60.594 L 343.083 61.083 342.594 60.542 C 342.138 60.037,342.000 59.923,342.000 60.052 M79.695 234.509 C 79.792 234.788,79.903 234.986,79.941 234.948 C 80.023 234.866,79.709 234.000,79.596 234.000 C 79.553 234.000,79.597 234.229,79.695 234.509 M248.705 331.500 C 248.705 331.821,248.740 331.952,248.782 331.792 C 248.823 331.631,248.823 331.369,248.782 331.208 C 248.740 331.048,248.705 331.179,248.705 331.500 M149.365 341.436 C 149.520 341.483,149.684 341.647,149.730 341.802 C 149.791 342.006,149.805 341.992,149.780 341.752 C 149.760 341.558,149.609 341.406,149.415 341.386 C 149.174 341.362,149.161 341.376,149.365 341.436 M248.539 352.333 C 248.539 352.654,248.573 352.785,248.615 352.625 C 248.657 352.465,248.657 352.202,248.615 352.042 C 248.573 351.881,248.539 352.012,248.539 352.333 " stroke="none" fill="#f0ecec" fill-rule="evenodd"></path><path id="path5" d="M209.294 0.118 C 209.501 0.158,209.801 0.156,209.960 0.115 C 210.120 0.073,209.950 0.040,209.583 0.042 C 209.217 0.044,209.086 0.078,209.294 0.118 M64.583 52.098 L 64.083 52.528 64.625 52.169 C 64.923 51.972,65.167 51.778,65.167 51.739 C 65.167 51.614,65.096 51.657,64.583 52.098 M342.000 60.052 C 342.000 60.081,342.244 60.325,342.542 60.594 L 343.083 61.083 342.594 60.542 C 342.138 60.037,342.000 59.923,342.000 60.052 M79.695 234.509 C 79.792 234.788,79.903 234.986,79.941 234.948 C 80.023 234.866,79.709 234.000,79.596 234.000 C 79.553 234.000,79.597 234.229,79.695 234.509 M248.705 331.500 C 248.705 331.821,248.740 331.952,248.782 331.792 C 248.823 331.631,248.823 331.369,248.782 331.208 C 248.740 331.048,248.705 331.179,248.705 331.500 M149.365 341.436 C 149.520 341.483,149.684 341.647,149.730 341.802 C 149.791 342.006,149.805 341.992,149.780 341.752 C 149.760 341.558,149.609 341.406,149.415 341.386 C 149.174 341.362,149.161 341.376,149.365 341.436 M248.539 352.333 C 248.539 352.654,248.573 352.785,248.615 352.625 C 248.657 352.465,248.657 352.202,248.615 352.042 C 248.573 351.881,248.539 352.012,248.539 352.333 " stroke="none" fill="#f0ecec" fill-rule="evenodd"></path><path id="path6" d="M209.294 0.118 C 209.501 0.158,209.801 0.156,209.960 0.115 C 210.120 0.073,209.950 0.040,209.583 0.042 C 209.217 0.044,209.086 0.078,209.294 0.118 M64.583 52.098 L 64.083 52.528 64.625 52.169 C 64.923 51.972,65.167 51.778,65.167 51.739 C 65.167 51.614,65.096 51.657,64.583 52.098 M342.000 60.052 C 342.000 60.081,342.244 60.325,342.542 60.594 L 343.083 61.083 342.594 60.542 C 342.138 60.037,342.000 59.923,342.000 60.052 M79.695 234.509 C 79.792 234.788,79.903 234.986,79.941 234.948 C 80.023 234.866,79.709 234.000,79.596 234.000 C 79.553 234.000,79.597 234.229,79.695 234.509 M248.705 331.500 C 248.705 331.821,248.740 331.952,248.782 331.792 C 248.823 331.631,248.823 331.369,248.782 331.208 C 248.740 331.048,248.705 331.179,248.705 331.500 M149.365 341.436 C 149.520 341.483,149.684 341.647,149.730 341.802 C 149.791 342.006,149.805 341.992,149.780 341.752 C 149.760 341.558,149.609 341.406,149.415 341.386 C 149.174 341.362,149.161 341.376,149.365 341.436 M248.539 352.333 C 248.539 352.654,248.573 352.785,248.615 352.625 C 248.657 352.465,248.657 352.202,248.615 352.042 C 248.573 351.881,248.539 352.012,248.539 352.333 " stroke="none" fill="#f0ecec" fill-rule="evenodd"></path><path id="path7" d="M209.294 0.118 C 209.501 0.158,209.801 0.156,209.960 0.115 C 210.120 0.073,209.950 0.040,209.583 0.042 C 209.217 0.044,209.086 0.078,209.294 0.118 M64.583 52.098 L 64.083 52.528 64.625 52.169 C 64.923 51.972,65.167 51.778,65.167 51.739 C 65.167 51.614,65.096 51.657,64.583 52.098 M342.000 60.052 C 342.000 60.081,342.244 60.325,342.542 60.594 L 343.083 61.083 342.594 60.542 C 342.138 60.037,342.000 59.923,342.000 60.052 M79.695 234.509 C 79.792 234.788,79.903 234.986,79.941 234.948 C 80.023 234.866,79.709 234.000,79.596 234.000 C 79.553 234.000,79.597 234.229,79.695 234.509 M248.705 331.500 C 248.705 331.821,248.740 331.952,248.782 331.792 C 248.823 331.631,248.823 331.369,248.782 331.208 C 248.740 331.048,248.705 331.179,248.705 331.500 M149.365 341.436 C 149.520 341.483,149.684 341.647,149.730 341.802 C 149.791 342.006,149.805 341.992,149.780 341.752 C 149.760 341.558,149.609 341.406,149.415 341.386 C 149.174 341.362,149.161 341.376,149.365 341.436 M248.539 352.333 C 248.539 352.654,248.573 352.785,248.615 352.625 C 248.657 352.465,248.657 352.202,248.615 352.042 C 248.573 351.881,248.539 352.012,248.539 352.333 " stroke="none" fill="#f0ecec" fill-rule="evenodd"></path></g></svg>