<svg xmlns="http://svgjs.com/svgjs" width="1440" height="560" preserveAspectRatio="none" version="1.1" viewBox="0 0 1440 560"><g fill="none" mask="url(&quot;#SvgjsMask1023&quot;)"><rect width="1440" height="560" x="0" y="0" fill="rgba(17, 24, 39, 1)"/><path stroke="url(#SvgjsLinearGradient1024)" stroke-linecap="round" stroke-width="8" d="M558 499L215 156" class="TopLeft"/><path stroke="url(#SvgjsLinearGradient1024)" stroke-linecap="round" stroke-width="6" d="M395 535L570 710" class="TopLeft"/><path stroke="url(#SvgjsLinearGradient1025)" stroke-linecap="round" stroke-width="10" d="M1378 378L1145 145" class="BottomRight"/><path stroke="url(#SvgjsLinearGradient1025)" stroke-linecap="round" stroke-width="6" d="M335 163L119 -53" class="BottomRight"/><path stroke="url(#SvgjsLinearGradient1024)" stroke-linecap="round" stroke-width="6" d="M548 519L149 120" class="TopLeft"/><path stroke="url(#SvgjsLinearGradient1024)" stroke-linecap="round" stroke-width="10" d="M1119 474L1274 629" class="TopLeft"/><path stroke="url(#SvgjsLinearGradient1025)" stroke-linecap="round" stroke-width="8" d="M1057 251L1258 452" class="BottomRight"/><path stroke="url(#SvgjsLinearGradient1025)" stroke-linecap="round" stroke-width="6" d="M1180 168L1340 328" class="BottomRight"/><path stroke="url(#SvgjsLinearGradient1024)" stroke-linecap="round" stroke-width="10" d="M221 366L619 764" class="TopLeft"/><path stroke="url(#SvgjsLinearGradient1025)" stroke-linecap="round" stroke-width="8" d="M75 421L-251 95" class="BottomRight"/><path stroke="url(#SvgjsLinearGradient1025)" stroke-linecap="round" stroke-width="10" d="M80 177L-100 -3" class="BottomRight"/><path stroke="url(#SvgjsLinearGradient1025)" stroke-linecap="round" stroke-width="6" d="M362 529L-19 148" class="BottomRight"/><path stroke="url(#SvgjsLinearGradient1024)" stroke-linecap="round" stroke-width="8" d="M297 224L624 551" class="TopLeft"/><path stroke="url(#SvgjsLinearGradient1025)" stroke-linecap="round" stroke-width="6" d="M207 28L384 205" class="BottomRight"/><path stroke="url(#SvgjsLinearGradient1025)" stroke-linecap="round" stroke-width="10" d="M46 122L-312 -236" class="BottomRight"/><path stroke="url(#SvgjsLinearGradient1025)" stroke-linecap="round" stroke-width="10" d="M553 120L973 540" class="BottomRight"/><path stroke="url(#SvgjsLinearGradient1025)" stroke-linecap="round" stroke-width="10" d="M1122 475L836 189" class="BottomRight"/><path stroke="url(#SvgjsLinearGradient1025)" stroke-linecap="round" stroke-width="6" d="M80 238L-133 25" class="BottomRight"/><path stroke="url(#SvgjsLinearGradient1024)" stroke-linecap="round" stroke-width="10" d="M813 544L1117 848" class="TopLeft"/><path stroke="url(#SvgjsLinearGradient1024)" stroke-linecap="round" stroke-width="10" d="M688 192L481 -15" class="TopLeft"/><path stroke="url(#SvgjsLinearGradient1025)" stroke-linecap="round" stroke-width="8" d="M1065 10L1353 298" class="BottomRight"/><path stroke="url(#SvgjsLinearGradient1024)" stroke-linecap="round" stroke-width="8" d="M784 298L1178 692" class="TopLeft"/><path stroke="url(#SvgjsLinearGradient1024)" stroke-linecap="round" stroke-width="10" d="M1171 398L1321 548" class="TopLeft"/><path stroke="url(#SvgjsLinearGradient1024)" stroke-linecap="round" stroke-width="10" d="M322 538L-70 146" class="TopLeft"/><path stroke="url(#SvgjsLinearGradient1024)" stroke-linecap="round" stroke-width="6" d="M806 48L1079 321" class="TopLeft"/><path stroke="url(#SvgjsLinearGradient1025)" stroke-linecap="round" stroke-width="8" d="M1414 143L1704 433" class="BottomRight"/><path stroke="url(#SvgjsLinearGradient1024)" stroke-linecap="round" stroke-width="10" d="M1189 469L1394 674" class="TopLeft"/><path stroke="url(#SvgjsLinearGradient1024)" stroke-linecap="round" stroke-width="6" d="M1230 2L1585 357" class="TopLeft"/><path stroke="url(#SvgjsLinearGradient1024)" stroke-linecap="round" stroke-width="6" d="M437 541L633 737" class="TopLeft"/><path stroke="url(#SvgjsLinearGradient1025)" stroke-linecap="round" stroke-width="8" d="M441 178L587 324" class="BottomRight"/><path stroke="url(#SvgjsLinearGradient1024)" stroke-linecap="round" stroke-width="8" d="M436 288L199 51" class="TopLeft"/><path stroke="url(#SvgjsLinearGradient1024)" stroke-linecap="round" stroke-width="6" d="M618 501L904 787" class="TopLeft"/><path stroke="url(#SvgjsLinearGradient1025)" stroke-linecap="round" stroke-width="10" d="M503 486L318 301" class="BottomRight"/><path stroke="url(#SvgjsLinearGradient1024)" stroke-linecap="round" stroke-width="10" d="M300 189L69 -42" class="TopLeft"/><path stroke="url(#SvgjsLinearGradient1025)" stroke-linecap="round" stroke-width="10" d="M1372 456L953 37" class="BottomRight"/><path stroke="url(#SvgjsLinearGradient1024)" stroke-linecap="round" stroke-width="6" d="M185 537L-42 310" class="TopLeft"/><path stroke="url(#SvgjsLinearGradient1024)" stroke-linecap="round" stroke-width="6" d="M616 362L281 27" class="TopLeft"/><path stroke="url(#SvgjsLinearGradient1024)" stroke-linecap="round" stroke-width="6" d="M1062 386L649 -27" class="TopLeft"/><path stroke="url(#SvgjsLinearGradient1024)" stroke-linecap="round" stroke-width="8" d="M799 2L549 -248" class="TopLeft"/></g><defs><mask id="SvgjsMask1023"><rect width="1440" height="560" fill="#fff"/></mask><linearGradient id="SvgjsLinearGradient1024" x1="100%" x2="0%" y1="100%" y2="0%"><stop offset="0" stop-color="rgba(103, 116, 241, 0)"/><stop offset="1" stop-color="rgba(103, 116, 241, 1)"/></linearGradient><linearGradient id="SvgjsLinearGradient1025" x1="0%" x2="100%" y1="0%" y2="100%"><stop offset="0" stop-color="rgba(103, 116, 241, 0)"/><stop offset="1" stop-color="rgba(103, 116, 241, 1)"/></linearGradient></defs></svg>