<svg xmlns="http://www.w3.org/2000/svg" version="1.1" xmlns="http://www.w3.org/1999/xlink" xmlns="http://svgjs.com/svgjs" width="1440" height="560" preserveAspectRatio="none" viewBox="0 0 1440 560"><g mask="url(&quot;#SvgjsMask1023&quot;)" fill="none"><rect width="1440" height="560" x="0" y="0" fill="rgba(17, 24, 39, 1)"></rect><path d="M558 499L215 156" stroke-width="8" stroke="url(#SvgjsLinearGradient1024)" stroke-linecap="round" class="TopLeft"></path><path d="M395 535L570 710" stroke-width="6" stroke="url(#SvgjsLinearGradient1024)" stroke-linecap="round" class="TopLeft"></path><path d="M1378 378L1145 145" stroke-width="10" stroke="url(#SvgjsLinearGradient1025)" stroke-linecap="round" class="BottomRight"></path><path d="M335 163L119 -53" stroke-width="6" stroke="url(#SvgjsLinearGradient1025)" stroke-linecap="round" class="BottomRight"></path><path d="M548 519L149 120" stroke-width="6" stroke="url(#SvgjsLinearGradient1024)" stroke-linecap="round" class="TopLeft"></path><path d="M1119 474L1274 629" stroke-width="10" stroke="url(#SvgjsLinearGradient1024)" stroke-linecap="round" class="TopLeft"></path><path d="M1057 251L1258 452" stroke-width="8" stroke="url(#SvgjsLinearGradient1025)" stroke-linecap="round" class="BottomRight"></path><path d="M1180 168L1340 328" stroke-width="6" stroke="url(#SvgjsLinearGradient1025)" stroke-linecap="round" class="BottomRight"></path><path d="M221 366L619 764" stroke-width="10" stroke="url(#SvgjsLinearGradient1024)" stroke-linecap="round" class="TopLeft"></path><path d="M75 421L-251 95" stroke-width="8" stroke="url(#SvgjsLinearGradient1025)" stroke-linecap="round" class="BottomRight"></path><path d="M80 177L-100 -3" stroke-width="10" stroke="url(#SvgjsLinearGradient1025)" stroke-linecap="round" class="BottomRight"></path><path d="M362 529L-19 148" stroke-width="6" stroke="url(#SvgjsLinearGradient1025)" stroke-linecap="round" class="BottomRight"></path><path d="M297 224L624 551" stroke-width="8" stroke="url(#SvgjsLinearGradient1024)" stroke-linecap="round" class="TopLeft"></path><path d="M207 28L384 205" stroke-width="6" stroke="url(#SvgjsLinearGradient1025)" stroke-linecap="round" class="BottomRight"></path><path d="M46 122L-312 -236" stroke-width="10" stroke="url(#SvgjsLinearGradient1025)" stroke-linecap="round" class="BottomRight"></path><path d="M553 120L973 540" stroke-width="10" stroke="url(#SvgjsLinearGradient1025)" stroke-linecap="round" class="BottomRight"></path><path d="M1122 475L836 189" stroke-width="10" stroke="url(#SvgjsLinearGradient1025)" stroke-linecap="round" class="BottomRight"></path><path d="M80 238L-133 25" stroke-width="6" stroke="url(#SvgjsLinearGradient1025)" stroke-linecap="round" class="BottomRight"></path><path d="M813 544L1117 848" stroke-width="10" stroke="url(#SvgjsLinearGradient1024)" stroke-linecap="round" class="TopLeft"></path><path d="M688 192L481 -15" stroke-width="10" stroke="url(#SvgjsLinearGradient1024)" stroke-linecap="round" class="TopLeft"></path><path d="M1065 10L1353 298" stroke-width="8" stroke="url(#SvgjsLinearGradient1025)" stroke-linecap="round" class="BottomRight"></path><path d="M784 298L1178 692" stroke-width="8" stroke="url(#SvgjsLinearGradient1024)" stroke-linecap="round" class="TopLeft"></path><path d="M1171 398L1321 548" stroke-width="10" stroke="url(#SvgjsLinearGradient1024)" stroke-linecap="round" class="TopLeft"></path><path d="M322 538L-70 146" stroke-width="10" stroke="url(#SvgjsLinearGradient1024)" stroke-linecap="round" class="TopLeft"></path><path d="M806 48L1079 321" stroke-width="6" stroke="url(#SvgjsLinearGradient1024)" stroke-linecap="round" class="TopLeft"></path><path d="M1414 143L1704 433" stroke-width="8" stroke="url(#SvgjsLinearGradient1025)" stroke-linecap="round" class="BottomRight"></path><path d="M1189 469L1394 674" stroke-width="10" stroke="url(#SvgjsLinearGradient1024)" stroke-linecap="round" class="TopLeft"></path><path d="M1230 2L1585 357" stroke-width="6" stroke="url(#SvgjsLinearGradient1024)" stroke-linecap="round" class="TopLeft"></path><path d="M437 541L633 737" stroke-width="6" stroke="url(#SvgjsLinearGradient1024)" stroke-linecap="round" class="TopLeft"></path><path d="M441 178L587 324" stroke-width="8" stroke="url(#SvgjsLinearGradient1025)" stroke-linecap="round" class="BottomRight"></path><path d="M436 288L199 51" stroke-width="8" stroke="url(#SvgjsLinearGradient1024)" stroke-linecap="round" class="TopLeft"></path><path d="M618 501L904 787" stroke-width="6" stroke="url(#SvgjsLinearGradient1024)" stroke-linecap="round" class="TopLeft"></path><path d="M503 486L318 301" stroke-width="10" stroke="url(#SvgjsLinearGradient1025)" stroke-linecap="round" class="BottomRight"></path><path d="M300 189L69 -42" stroke-width="10" stroke="url(#SvgjsLinearGradient1024)" stroke-linecap="round" class="TopLeft"></path><path d="M1372 456L953 37" stroke-width="10" stroke="url(#SvgjsLinearGradient1025)" stroke-linecap="round" class="BottomRight"></path><path d="M185 537L-42 310" stroke-width="6" stroke="url(#SvgjsLinearGradient1024)" stroke-linecap="round" class="TopLeft"></path><path d="M616 362L281 27" stroke-width="6" stroke="url(#SvgjsLinearGradient1024)" stroke-linecap="round" class="TopLeft"></path><path d="M1062 386L649 -27" stroke-width="6" stroke="url(#SvgjsLinearGradient1024)" stroke-linecap="round" class="TopLeft"></path><path d="M799 2L549 -248" stroke-width="8" stroke="url(#SvgjsLinearGradient1024)" stroke-linecap="round" class="TopLeft"></path></g><defs><mask id="SvgjsMask1023"><rect width="1440" height="560" fill="#ffffff"></rect></mask><linearGradient x1="100%" y1="100%" x2="0%" y2="0%" id="SvgjsLinearGradient1024"><stop stop-color="rgba(103, 116, 241, 0)" offset="0"></stop><stop stop-color="rgba(103, 116, 241, 1)" offset="1"></stop></linearGradient><linearGradient x1="0%" y1="0%" x2="100%" y2="100%" id="SvgjsLinearGradient1025"><stop stop-color="rgba(103, 116, 241, 0)" offset="0"></stop><stop stop-color="rgba(103, 116, 241, 1)" offset="1"></stop></linearGradient></defs></svg>