<svg xmlns="http://www.w3.org/2000/svg" data-name="Layer 1" viewBox="0 0 100 125" x="0px" y="0px"><path d="M69.46,50A19.46,19.46,0,1,0,50,69.46,19.48,19.48,0,0,0,69.46,50ZM50,65.65A15.65,15.65,0,1,1,65.65,50,15.67,15.67,0,0,1,50,65.65Z"/><path d="M48.1,11.9V24.4a1.9,1.9,0,0,0,3.8,0V11.9a1.9,1.9,0,0,0-3.8,0Z"/><path d="M19,27.74l9.77,7.79a1.9,1.9,0,0,0,2.37-3L21.4,24.76a1.9,1.9,0,0,0-2.37,3Z"/><path d="M26.9,55.27a1.92,1.92,0,0,0-2.29-1.43L12.44,56.62a1.9,1.9,0,0,0,.42,3.76,1.51,1.51,0,0,0,.42-.05l12.18-2.78A1.9,1.9,0,0,0,26.9,55.27Z"/><path d="M32.64,86a1.91,1.91,0,0,0,2.55-.89l5.42-11.26a1.9,1.9,0,1,0-3.43-1.65L31.76,83.5A1.9,1.9,0,0,0,32.64,86Z"/><path d="M64.81,85.15a1.9,1.9,0,1,0,3.43-1.65L62.82,72.24a1.9,1.9,0,1,0-3.43,1.65Z"/><path d="M87.14,60.38a1.9,1.9,0,0,0,.42-3.76L75.39,53.84a1.9,1.9,0,1,0-.85,3.71l12.18,2.78A1.51,1.51,0,0,0,87.14,60.38Z"/><path d="M81.27,25.06a1.89,1.89,0,0,0-2.67-.3l-9.77,7.79a1.89,1.89,0,0,0-.3,2.67,1.9,1.9,0,0,0,2.67.31L81,27.74A1.91,1.91,0,0,0,81.27,25.06Z"/><path d="M37.18,27.76a1.9,1.9,0,0,0,2.54.89,1.91,1.91,0,0,0,.89-2.54l-1.45-3a1.91,1.91,0,1,0-3.43,1.66Z"/><path d="M36.63,17.85l-1.44-3a1.9,1.9,0,1,0-3.43,1.65l1.44,3a1.91,1.91,0,0,0,1.72,1.08,1.83,1.83,0,0,0,.82-.19A1.91,1.91,0,0,0,36.63,17.85Z"/><path d="M22.21,41.7a1.91,1.91,0,1,0-.84,3.72l3.24.74a2.18,2.18,0,0,0,.43.05,1.9,1.9,0,0,0,.42-3.76Z"/><path d="M12.44,43.38l3.25.74a2,2,0,0,0,.42.05,1.9,1.9,0,0,0,.42-3.76l-3.25-.74a1.9,1.9,0,1,0-.84,3.71Z"/><path d="M27.38,70a1.89,1.89,0,0,0,1.18-.42l2.61-2.08a1.9,1.9,0,0,0-2.37-3l-2.61,2.08A1.91,1.91,0,0,0,27.38,70Z"/><path d="M21.63,70.18,19,72.26a1.9,1.9,0,1,0,2.37,3L24,73.16a1.91,1.91,0,0,0-2.38-3Z"/><path d="M51.9,75.6a1.9,1.9,0,0,0-3.8,0v3.34a1.9,1.9,0,0,0,3.8,0Z"/><path d="M50,82.86a1.9,1.9,0,0,0-1.9,1.9V88.1a1.9,1.9,0,0,0,3.8,0V84.76A1.9,1.9,0,0,0,50,82.86Z"/><path d="M68.83,67.45l2.61,2.08a1.9,1.9,0,0,0,2.37-3L71.2,64.47a1.9,1.9,0,0,0-2.37,3Z"/><path d="M78.37,70.18a1.91,1.91,0,0,0-2.38,3l2.61,2.08a1.9,1.9,0,0,0,2.37-3Z"/><path d="M77.79,41.7l-3.25.75A1.9,1.9,0,0,0,75,46.21a2.18,2.18,0,0,0,.43-.05l3.24-.74a1.91,1.91,0,1,0-.84-3.72Z"/><path d="M89,41.1a1.9,1.9,0,0,0-2.28-1.43l-3.25.74a1.9,1.9,0,0,0,.42,3.76,2,2,0,0,0,.42-.05l3.25-.74A1.91,1.91,0,0,0,89,41.1Z"/><path d="M60.28,28.65a1.9,1.9,0,0,0,2.54-.89l1.45-3a1.91,1.91,0,1,0-3.43-1.66l-1.45,3A1.91,1.91,0,0,0,60.28,28.65Z"/><path d="M66.8,19.51l1.44-3a1.9,1.9,0,1,0-3.43-1.65l-1.44,3a1.91,1.91,0,0,0,.89,2.55,1.83,1.83,0,0,0,.82.19A1.91,1.91,0,0,0,66.8,19.51Z"/><text x="0" y="115" fill="#000000" font-size="5px" font-weight="bold" font-family="'Helvetica Neue', Helvetica, Arial-Unicode, Arial, Sans-serif"></text><text x="0" y="120" fill="#000000" font-size="5px" font-weight="bold" font-family="'Helvetica Neue', Helvetica, Arial-Unicode, Arial, Sans-serif"></text></svg>