<svg xmlns="http://www.w3.org/2000/svg" xmlns:xlink="http://www.w3.org/1999/xlink" version="1.1" x="0px" y="0px" viewBox="0 0 512 640" style="enable-background:new 0 0 512 512;" xml:space="preserve"><g><g><circle cx="406" cy="76" r="10"/><circle cx="286" cy="86" r="10"/><circle cx="206" cy="136" r="10"/><circle cx="56" cy="46" r="10"/><circle cx="136" cy="376" r="10"/><circle cx="236" cy="456" r="10"/><circle cx="426" cy="466" r="10"/><circle cx="86" cy="466" r="10"/><path d="M466,86c-16.542,0-30,13.458-30,30v65.744c-44.943,41.768-91.664,13.56-107.58,1.532    c-1.819-1.594-3.692-3.128-5.613-4.602c-0.2-0.167-0.684-0.66-1.647-1.241c-38.779-28.607-91.625-28.595-130.396,0.057    c-0.512,0.315-1,0.684-1.46,1.1c-3.599,2.752-7.022,5.721-10.252,8.887c-0.729,0.583-0.918,0.84-1.014,0.94    c-44.958,33.75-89.77,2.85-102.037-7.028V116c0-16.542-13.458-30-30-30s-30,13.458-30,30v300c0,16.542,13.458,30,30,30    s30-13.458,30-30v-65.39c12.267-9.878,57.079-40.778,102.037-7.028c0.097,0.103,0.305,0.372,1.013,0.939    c38.54,37.777,98.648,42.123,142.132,10.028c0.567-0.343,1.109-0.748,1.615-1.215c0.171-0.158,2.403-1.789,5.618-4.606    c15.912-12.027,62.635-40.246,107.585,1.527V416c0,16.542,13.458,30,30,30s30-13.458,30-30V116C496,99.458,482.542,86,466,86z     M266,355.441V325.15c9.102-1.533,17.508-5.123,24.734-10.273l21.323,21.323c-0.916,0.755-1.615,1.358-2.102,1.788    C297.426,347.403,282.367,353.624,266,355.441z M202.285,338.17c-0.73-0.72-1.461-1.432-2.193-2.119l21.174-21.174    c7.227,5.15,15.633,8.74,24.734,10.273v30.291C229.737,353.636,214.768,347.483,202.285,338.17z M246,176.559v30.291    c-9.101,1.534-17.508,5.123-24.734,10.274l-21.173-21.173c0.744-0.699,1.487-1.415,2.23-2.146    C214.797,184.505,229.753,178.363,246,176.559z M309.956,194.012c0.486,0.429,1.186,1.033,2.102,1.788l-21.323,21.323    c-7.227-5.151-15.633-8.74-24.734-10.274v-30.291C282.367,178.376,297.426,184.597,309.956,194.012z M256,306    c-22.056,0-40-17.944-40-40c0-22.056,17.944-40,40-40c22.056,0,40,17.944,40,40C296,288.056,278.056,306,256,306z M196.849,256    h-30.291c1.925-17.333,8.791-33.194,19.155-46.144l21.409,21.409C201.972,238.492,198.383,246.899,196.849,256z M196.849,276    c1.534,9.102,5.123,17.508,10.274,24.734l-21.409,21.409c-10.365-12.949-17.23-28.811-19.155-46.144H196.849z M326.286,322.144    l-21.409-21.409c5.15-7.227,8.74-15.633,10.273-24.734h30.291C343.517,293.333,336.65,309.194,326.286,322.144z M315.15,256    c-1.533-9.101-5.123-17.508-10.273-24.734l21.409-21.409c10.364,12.949,17.23,28.811,19.155,46.144H315.15z M56,416    c0,5.514-4.486,10-10,10s-10-4.486-10-10V116c0-5.514,4.486-10,10-10s10,4.486,10,10V416z M76,326.255v-120.51    c24.235,15.065,52.128,22.319,79.505,15.546c-12.675,28.378-12.685,61.02,0.002,89.424    C136.272,305.955,100.073,311.289,76,326.255z M355.617,312.62c13.846-29.469,13.857-63.754-0.004-93.247    c28.388,8.682,55.964,4.748,80.387-12.01v117.27C406.15,304.151,376.726,306.167,355.617,312.62z M476,416c0,5.514-4.486,10-10,10    s-10-4.486-10-10c0-35.776,0-264.174,0-300c0-5.514,4.486-10,10-10s10,4.486,10,10V416z"/><path d="M286,426c0-5.522-4.478-10-10-10H126c-5.523,0-10,4.478-10,10s4.477,10,10,10h150C281.522,436,286,431.522,286,426z"/><path d="M366,446h-90c-5.522,0-10,4.478-10,10s4.478,10,10,10h90c5.522,0,10-4.478,10-10S371.522,446,366,446z"/><path d="M146,146c22.056,0,40-17.944,40-40s-17.944-40-40-40s-40,17.944-40,40S123.944,146,146,146z M146,86    c11.028,0,20,8.972,20,20s-8.972,20-20,20s-20-8.972-20-20S134.972,86,146,86z"/><path d="M366,366c-16.542,0-30,13.458-30,30s13.458,30,30,30s30-13.458,30-30S382.542,366,366,366z M366,406    c-5.514,0-10-4.486-10-10s4.486-10,10-10s10,4.486,10,10S371.514,406,366,406z"/><path d="M361,146c13.785,0,25-11.215,25-25s-11.215-25-25-25s-25,11.215-25,25S347.215,146,361,146z M361,116c2.757,0,5,2.243,5,5    s-2.243,5-5,5s-5-2.243-5-5S358.243,116,361,116z"/></g></g><text x="0" y="527" fill="#000000" font-size="5px" font-weight="bold" font-family="'Helvetica Neue', Helvetica, Arial-Unicode, Arial, Sans-serif"></text><text x="0" y="532" fill="#000000" font-size="5px" font-weight="bold" font-family="'Helvetica Neue', Helvetica, Arial-Unicode, Arial, Sans-serif"></text></svg>