<svg xmlns="http://www.w3.org/2000/svg" version="1.1" viewBox="-5.0 -10.0 110.0 135.0">
 <path d="m91.879 50.809c-1.1797-0.56641-2.582-0.33984-3.5234 0.57031-5.2773 5.0977-12.207 7.9023-19.516 7.9023-15.508 0-28.125-12.617-28.125-28.125 0-7.3047 2.8047-14.238 7.9023-19.516 0.90625-0.94141 1.1367-2.3438 0.57031-3.5234-0.5625-1.1758-1.8125-1.8477-3.1016-1.7617-22.656 2.0625-39.742 20.781-39.742 43.551 0 24.125 19.625 43.75 43.75 43.75 22.77 0 41.488-17.086 43.547-39.746 0.12109-1.3008-0.58203-2.5391-1.7617-3.1016zm-41.785 36.598c-20.676 0-37.5-16.824-37.5-37.5 0-16.859 10.93-31.133 26.43-35.84-2.9688 5.1562-4.5547 11.016-4.5547 17.09 0 18.953 15.422 34.375 34.375 34.375 6.0742 0 11.934-1.5859 17.09-4.5547-4.707 15.496-18.98 26.43-35.84 26.43z"/>
<text x="0.0" y="117.5" font-size="5.0" font-weight="bold" font-family="Arbeit Regular, Helvetica, Arial-Unicode, Arial, Sans-serif" fill="#000000"></text><text x="0.0" y="122.5" font-size="5.0" font-weight="bold" font-family="Arbeit Regular, Helvetica, Arial-Unicode, Arial, Sans-serif" fill="#000000"></text></svg>