<svg xmlns="http://www.w3.org/2000/svg" width="133.333" height="133.333" preserveAspectRatio="xMidYMid meet" version="1.0" viewBox="0 0 100 100"><g fill="#000" stroke="none"><path d="M673 952 c-29 -10 -80 -40 -113 -66 l-61 -48 -118 7 c-108 7 -122 6 -167 -14 -64 -29 -92 -55 -120 -116 -44 -93 -28 -203 39 -273 54 -57 102 -76 187 -77 77 0 84 2 196 65 51 27 100 22 141 -16 l28 -25 -25 -17 c-56 -39 -84 -68 -101 -107 -54 -118 21 -239 147 -239 90 0 156 70 156 165 -1 57 -17 90 -72 148 -22 25 -37 48 -33 52 4 4 35 22 68 40 76 40 113 71 148 122 25 38 27 46 27 153 0 112 0 113 -32 155 -69 89 -193 127 -295 91z" transform="translate(0.000000,100.000000) scale(0.100000,-0.100000)"/></g></svg>